<mxfile host="app.diagrams.net" modified="2023-10-20T07:45:11.971Z" agent="Mozilla/5.0 (Windows NT 10.0; Win64; x64) AppleWebKit/537.36 (KHTML, like Gecko) Chrome/118.0.0.0 Safari/537.36 Edg/118.0.2088.57" etag="0Blp9bPvS62cQBnJqZmU" version="22.0.5" type="github">
  <diagram id="E22cA_Lo9M3aO_dF8qXa" name="Seite-1">
    <mxGraphModel dx="920" dy="681" grid="1" gridSize="10" guides="1" tooltips="1" connect="1" arrows="1" fold="1" page="1" pageScale="1" pageWidth="827" pageHeight="1169" math="0" shadow="0">
      <root>
        <mxCell id="0" />
        <mxCell id="1" parent="0" />
      </root>
    </mxGraphModel>
  </diagram>
</mxfile>
